<?xml version="1.0" encoding="utf-8"?>
<!-- Generator: Adobe Illustrator 23.0.2, SVG Export Plug-In . SVG Version: 6.00 Build 0)  -->
<svg version="1.1" id="Layer_1" xmlns="http://www.w3.org/2000/svg" xmlns:xlink="http://www.w3.org/1999/xlink" x="0px" y="0px"
	 viewBox="0 0 668.8 438.3" style="enable-background:new 0 0 668.8 438.3;" xml:space="preserve">
<style type="text/css">
	.st0{fill:#B21414;}
	.st1{fill:none;stroke:#FFFFFF;stroke-width:5;stroke-miterlimit:10;}
	.st2{fill:#FFFFFF;}
	.st3{fill:none;stroke:#FFFFFF;stroke-width:4;stroke-miterlimit:10;stroke-dasharray:6.054,9.081;}
	.st4{font-family:'FontAwesome';}
	.st5{font-size:65.7707px;}
	.st6{font-family:'Times-Roman';}
	.st7{font-size:462.3799px;}
</style>
<g>
	<g>
		<g>
			<path class="st0" d="M637.5,273.2c0,12.5-17.4,22.6-20.5,34.1c-3.2,11.9,6.7,29.3,0.7,39.8c-6.1,10.6-26.2,10.7-34.8,19.3
				c-8.6,8.6-8.7,28.7-19.3,34.8c-10.5,6-27.8-3.9-39.8-0.7c-11.5,3.1-21.6,20.5-34.1,20.5c-12.5,0-22.6-17.4-34.1-20.5
				c-11.9-3.2-29.3,6.7-39.8,0.7c-10.6-6.1-10.7-26.2-19.3-34.8c-8.6-8.6-28.7-8.7-34.8-19.3c-6-10.5,3.9-27.8,0.7-39.8
				c-3.1-11.5-20.5-21.6-20.5-34.1c0-12.5,17.4-22.6,20.5-34.1c3.2-11.9-6.7-29.3-0.7-39.8c6.1-10.6,26.2-10.7,34.8-19.3
				c8.6-8.6,8.7-28.7,19.3-34.8c10.5-6,27.8,3.9,39.8,0.7c11.5-3.1,21.6-20.5,34.1-20.5c12.5,0,22.6,17.4,34.1,20.5
				c11.9,3.2,29.3-6.7,39.8-0.7c10.6,6.1,10.7,26.2,19.3,34.8c8.6,8.6,28.7,8.7,34.8,19.3c6,10.5-3.9,27.8-0.7,39.8
				C620.1,250.7,637.5,260.7,637.5,273.2z"/>
			<path class="st1" d="M637.5,273.2c0,12.5-17.4,22.6-20.5,34.1c-3.2,11.9,6.7,29.3,0.7,39.8c-6.1,10.6-26.2,10.7-34.8,19.3
				c-8.6,8.6-8.7,28.7-19.3,34.8c-10.5,6-27.8-3.9-39.8-0.7c-11.5,3.1-21.6,20.5-34.1,20.5c-12.5,0-22.6-17.4-34.1-20.5
				c-11.9-3.2-29.3,6.7-39.8,0.7c-10.6-6.1-10.7-26.2-19.3-34.8c-8.6-8.6-28.7-8.7-34.8-19.3c-6-10.5,3.9-27.8,0.7-39.8
				c-3.1-11.5-20.5-21.6-20.5-34.1c0-12.5,17.4-22.6,20.5-34.1c3.2-11.9-6.7-29.3-0.7-39.8c6.1-10.6,26.2-10.7,34.8-19.3
				c8.6-8.6,8.7-28.7,19.3-34.8c10.5-6,27.8,3.9,39.8,0.7c11.5-3.1,21.6-20.5,34.1-20.5c12.5,0,22.6,17.4,34.1,20.5
				c11.9,3.2,29.3-6.7,39.8-0.7c10.6,6.1,10.7,26.2,19.3,34.8c8.6,8.6,28.7,8.7,34.8,19.3c6,10.5-3.9,27.8-0.7,39.8
				C620.1,250.7,637.5,260.7,637.5,273.2z"/>
		</g>
		<circle class="st2" cx="489.8" cy="273.2" r="98.8"/>
		<circle class="st0" cx="489.8" cy="273.2" r="84.5"/>
		<g>
			
				<ellipse transform="matrix(0.9871 -0.1602 0.1602 0.9871 -37.4432 81.9839)" class="st3" cx="489.8" cy="273.2" rx="69.9" ry="69.9"/>
		</g>
		<text transform="matrix(1 0 0 1 468.6504 297.4792)" class="st2 st4 st5"></text>
	</g>
	<text transform="matrix(1 0 0 1 22.9426 357.7174)" class="st6 st7">H</text>
</g>
</svg>
